<svg xmlns="http://www.w3.org/2000/svg" aria-hidden="true" style="position:absolute;width:0;height:0;overflow:hidden">
    <defs>
        <symbol id="icon-jefferson" viewBox="0 0 32 32">
            <path d="m30.177 15.81.053-1.117-.976.607-.302-.502 1.036-.509-1.036-.509.302-.509.976.607-.053-1.117h.597l-.053 1.117.976-.607.302.509-1.036.509 1.036.509-.302.502-.976-.607.053 1.117h-.597zM25.556 15.641v2.454h-.795v-4.139h.773v.681h.055c.093-.225.239-.402.438-.533.199-.133.454-.2.765-.2.28 0 .524.059.732.178.211.116.374.29.489.522.118.232.177.52.177.863v2.628h-.795v-2.532c0-.299-.078-.533-.235-.703-.157-.173-.37-.259-.64-.259a.987.987 0 0 0-.497.126c-.145.081-.259.199-.342.352s-.125.341-.125.563zM22.474 18.095a1.9 1.9 0 0 1-1.004-.261 1.771 1.771 0 0 1-.665-.733 2.436 2.436 0 0 1-.234-1.096c0-.421.078-.788.234-1.103a1.76 1.76 0 0 1 .665-.736 1.9 1.9 0 0 1 1.004-.261c.385 0 .72.087 1.004.261s.506.42.665.736c.158.314.237.682.237 1.103 0 .416-.079.781-.237 1.096s-.38.559-.665.733a1.89 1.89 0 0 1-1.004.261zm0-.664c.251 0 .458-.065.621-.196s.284-.304.362-.519c.08-.218.121-.455.121-.711 0-.261-.04-.501-.121-.718-.078-.218-.198-.392-.362-.522s-.37-.196-.621-.196a.954.954 0 0 0-.617.196c-.161.131-.281.305-.362.522s-.121.457-.121.718c0 .256.04.493.121.711.08.215.201.388.362.519a.954.954 0 0 0 .617.196zM20.107 14.95l-.744.123a.898.898 0 0 0-.268-.374c-.128-.114-.321-.171-.578-.171-.232 0-.425.051-.581.152-.154.099-.23.226-.23.381 0 .135.052.245.155.33.106.085.273.152.502.203l.676.145c.385.085.673.218.865.399s.287.414.287.697c0 .244-.073.462-.219.653a1.465 1.465 0 0 1-.608.446 2.36 2.36 0 0 1-.899.16c-.473 0-.858-.098-1.155-.294s-.48-.472-.547-.827l.789-.116a.73.73 0 0 0 .306.45c.156.102.358.152.604.152.267 0 .481-.054.642-.163.164-.109.245-.241.245-.395 0-.256-.199-.429-.597-.519l-.714-.152c-.395-.087-.687-.224-.876-.41a.973.973 0 0 1-.279-.711c0-.239.069-.45.208-.631.141-.181.334-.322.578-.421.247-.102.527-.152.842-.152.458 0 .817.096 1.076.287.262.191.436.444.521.758zM14.476 18.095v-4.131h.8v.661h.046c.079-.222.217-.397.414-.525.199-.131.424-.196.674-.196.051 0 .111.002.18.007.071.002.129.006.172.011v.769a2.172 2.172 0 0 0-.436-.045c-.197 0-.373.041-.528.122a.926.926 0 0 0-.364.329.88.88 0 0 0-.13.48v2.516h-.827zM12.292 18.095c-.412 0-.768-.086-1.069-.258s-.533-.414-.696-.726a2.38 2.38 0 0 1-.241-1.099c0-.416.079-.782.237-1.099.161-.317.385-.564.674-.74a1.914 1.914 0 0 1 1.024-.268c.238 0 .469.037.693.112s.424.194.602.356c.178.162.319.373.422.631.105.259.158.571.158.936v.283h-3.347v-.591h2.925l-.38.196c0-.249-.04-.469-.12-.66s-.201-.34-.361-.446c-.158-.109-.355-.163-.591-.163s-.438.054-.606.163c-.166.109-.292.253-.38.432s-.132.375-.132.588v.403c0 .278.05.514.151.707s.24.341.418.443c.181.102.39.152.629.152.156 0 .296-.022.422-.065.128-.044.238-.109.331-.196s.163-.195.211-.323l.775.142c-.063.218-.173.409-.331.573s-.358.293-.598.385c-.238.09-.511.134-.817.134zM10.453 14v.641H8V14h2.453zm-1.784 4.095v-4.571c0-.254.06-.465.179-.634.122-.171.28-.298.474-.381.197-.085.408-.128.634-.128a2.08 2.08 0 0 1 .711.11l-.202.645a1.949 1.949 0 0 0-.152-.04.95.95 0 0 0-.225-.022c-.205 0-.352.049-.443.147-.091.095-.136.234-.136.418v4.458h-.84z"/>
            <path d="M8.167 14v.641H5.714V14h2.453zm-1.784 4.095v-4.571c0-.254.06-.465.179-.634.122-.171.28-.298.474-.381.197-.085.408-.128.634-.128a2.08 2.08 0 0 1 .711.11l-.202.645a1.949 1.949 0 0 0-.152-.04.95.95 0 0 0-.225-.022c-.205 0-.352.049-.443.147-.091.095-.136.234-.136.418v4.458h-.84zM3.911 18.095c-.412 0-.768-.086-1.069-.258s-.533-.414-.696-.726a2.38 2.38 0 0 1-.241-1.099c0-.416.079-.782.237-1.099.161-.317.385-.564.674-.74a1.914 1.914 0 0 1 1.024-.268c.238 0 .469.037.693.112s.424.194.602.356c.178.162.319.373.422.631.105.259.158.571.158.936v.283H2.369v-.591h2.925l-.38.196c0-.249-.04-.469-.12-.66s-.201-.34-.361-.446c-.158-.109-.355-.163-.591-.163s-.438.054-.606.163c-.166.109-.292.253-.38.432s-.132.375-.132.588v.403c0 .278.05.514.151.707s.24.341.418.443c.181.102.39.152.629.152.156 0 .296-.022.422-.065.128-.044.238-.109.331-.196s.163-.195.211-.323l.775.142c-.063.218-.173.409-.331.573s-.358.293-.598.385c-.238.09-.511.134-.817.134zM.651 13.967h.773v4.383c.002.275-.045.507-.143.695s-.241.331-.429.427a1.49 1.49 0 0 1-.694.147H.001v-.688h.125c.186 0 .32-.05.401-.151s.123-.245.125-.434v-4.379zm.383-.633c-.136 0-.252-.047-.347-.14s-.143-.205-.143-.335c0-.132.048-.245.143-.339s.211-.14.347-.14c.134 0 .248.047.343.14a.45.45 0 0 1 .147.339c0 .13-.049.242-.147.335a.474.474 0 0 1-.343.14z"/>
        </symbol>
        <symbol id="icon-arrow-narrow-down" viewBox="0 0 32 32">
            <path stroke-width="3.2" d="m24 12-8 8-8-8"/>
        </symbol>
        <symbol id="icon-arrow-narrow-up" viewBox="0 0 32 32">
            <path stroke-width="3.2" d="m24 20-8-8-8 8"/>
        </symbol>
        <symbol id="icon-hourglass" viewBox="0 0 32 32">
            <path stroke-linecap="round" stroke-linejoin="round" stroke-width="2.667" d="M24.217 2.667H7.783c-.617 0-1.117.5-1.117 1.117a13.4 13.4 0 0 0 3.925 9.475l1.626 1.626c.161.161.242.242.3.32a1.335 1.335 0 0 1 0 1.594c-.058.077-.139.158-.3.32l-1.626 1.626a13.4 13.4 0 0 0-3.925 9.475c0 .617.5 1.117 1.117 1.117h16.434c.617 0 1.117-.5 1.117-1.117a13.4 13.4 0 0 0-3.925-9.475l-1.626-1.626c-.161-.161-.242-.242-.3-.32a1.332 1.332 0 0 1 0-1.594c.058-.077.139-.158.3-.32l1.626-1.626a13.4 13.4 0 0 0 3.925-9.475c0-.617-.5-1.117-1.117-1.117z"/>
        </symbol>
        <symbol id="icon-brush" viewBox="0 0 32 32">
            <path stroke-linecap="round" stroke-linejoin="round" stroke-width="2.667" d="M17.037 20 12 14.963M2.667 29.333c2.667 0 6.144.456 7.966-1.367a4.668 4.668 0 0 0-6.6-6.6c-1.823 1.822 0 5.3-1.367 7.967z"/>
            <path stroke-linecap="round" stroke-linejoin="round" stroke-width="2.667" d="M10.667 21.333c-.655-.655-.983-.983-1.168-1.326a2.668 2.668 0 0 1 .05-2.623c.198-.336.538-.651 1.218-1.28L23.924 3.921a2.94 2.94 0 0 1 4.153 4.153L15.894 21.231c-.63.68-.944 1.02-1.28 1.218-.805.475-1.8.495-2.623.05-.343-.185-.671-.513-1.326-1.168z"/>
        </symbol>
        <symbol id="icon-user" viewBox="0 0 32 32">
            <path stroke-linecap="round" stroke-linejoin="round" stroke-width="2.667" d="M26.667 28c0-1.861 0-2.791-.23-3.548a5.333 5.333 0 0 0-3.556-3.556c-.757-.23-1.687-.23-3.548-.23h-6.667c-1.861 0-2.791 0-3.548.23a5.335 5.335 0 0 0-3.556 3.556c-.23.757-.23 1.687-.23 3.548M16 16a6 6 0 1 0 0-12 6 6 0 0 0 0 12z"/>
        </symbol>
        <symbol id="icon-message-chat-circle" viewBox="0 0 32 32">
            <path stroke-linecap="round" stroke-linejoin="round" stroke-width="2.667" d="M8.126 14.972A10.66 10.66 0 0 1 8 13.334C8 7.443 12.807 2.667 18.737 2.667s10.737 4.776 10.737 10.667c0 1.331-.245 2.605-.693 3.779-.093.244-.14.366-.161.461s-.029.161-.031.257c-.002.097.011.205.037.42l.537 4.36c.058.472.087.708.009.88a.667.667 0 0 1-.343.335c-.173.075-.409.04-.879-.029l-4.247-.623a2.965 2.965 0 0 0-.434-.048c-.1.001-.169.008-.267.028s-.225.068-.477.163a10.78 10.78 0 0 1-3.787.683c-.558 0-1.105-.042-1.64-.124m-6.923 5.457c3.953 0 7.158-3.283 7.158-7.333s-3.205-7.333-7.158-7.333c-3.953 0-7.158 3.283-7.158 7.333 0 .814.13 1.597.369 2.329.101.309.152.464.168.57.017.11.02.172.014.284-.006.107-.033.227-.086.469l-.815 3.682 3.993-.545c.218-.03.327-.045.422-.044.1.001.153.006.252.026.093.019.232.067.51.165a6.994 6.994 0 0 0 2.332.398z"/>
        </symbol>
        <symbol id="icon-arrow-narrow-right" viewBox="0 0 32 32">
            <path stroke-linecap="round" stroke-linejoin="round" stroke-width="2" d="M5.333 16h21.333M18.667 8l8 8-8 8"/>
        </symbol>
        <symbol id="icon-arrow-narrow-left" viewBox="0 0 32 32">
            <path stroke-linecap="round" stroke-linejoin="round" stroke-width="2" d="M26.667 16H5.334M13.333 24l-8-8 8-8"/>
        </symbol>
        <symbol id="icon-menu" viewBox="0 0 32 32">
            <path stroke-linecap="round" stroke-linejoin="round" stroke-width="2.286" d="M4 11.333h24M4 20.667h24"/>
        </symbol>
        <symbol id="icon-close" viewBox="0 0 32 32">
            <path stroke-linecap="round" stroke-linejoin="round" stroke-width="2.909" d="M24 8 8 24M8 8l16 16"/>
        </symbol>
    </defs>
</svg>